<svg width="48" height="48" viewBox="0 0 48 48" fill="none" xmlns="http://www.w3.org/2000/svg">
<path fill-rule="evenodd" clip-rule="evenodd" d="M38.2 6.56666L43.1333 9.96666L48 6.69999V0L38.2 6.56666ZM23.9667 0.0333328L0.2 15.9666C0.211302 16.0528 0.222954 16.1415 0.234919 16.2326L0.234361 16.2283C0.222591 16.1387 0.211126 16.0515 0.2 15.9666L0.219743 15.9799C5.0332 19.205 5.14583 19.2833 5.14583 19.2833C5.14167 19.2833 5.13334 19.2833 10.0667 22.6C15.9833 18.6 15.9833 18.6 15.9833 18.6C15.9833 18.6 15.9833 18.6 21.9 14.6L19.35 12.9L16.8 11.2C20.0833 8.96666 20.1002 8.97788 20.1085 8.98344C20.1168 8.98878 20.138 8.97405 23.3653 6.73427L23.3667 6.73333L30.3833 11.4667L37.4 16.2L26.05 23.9166L14.7 31.6333C17.0667 33.2333 17.0667 33.2333 17.0667 33.2333C17.0667 33.2333 17.0667 33.2333 19.4333 34.8333C33.55 25.3833 33.55 25.3833 33.55 25.3833C33.55 25.3833 33.55 25.3833 47.6667 15.9333L23.9667 0.0333328ZM0 41.5667L4.96667 38.1333L9.83333 41.5L0 48V41.5667ZM0.166667 31.9666C11.9833 39.8833 11.9833 39.8833 11.9833 39.8833C11.9833 39.8833 11.9833 39.8833 23.8 47.8C35.7667 39.8333 35.7667 39.8333 35.7667 39.8333C35.7667 39.8333 35.7667 39.8333 47.7333 31.8666C42.7833 28.5666 42.7833 28.5666 42.7833 28.5666L37.8333 25.2666C31.9167 29.25 31.9167 29.25 31.9167 29.25C31.9167 29.25 31.9167 29.25 26 33.2333C28.55 34.9333 28.55 34.9333 28.55 34.9333C28.55 34.9333 28.55 34.9333 31.1 36.6333L24.5 41.1333C17.5 36.3667 17.5 36.3667 17.5 36.3667C17.5 36.3667 17.5 36.3666 10.5 31.6C21.8667 23.9 21.8834 23.8916 21.8917 23.8875C21.9 23.8833 22.0167 23.8042 33.2333 16.2C30.8333 14.6 30.8333 14.6 30.8333 14.6C30.8333 14.6 30.8333 14.6 28.4333 13L0.166667 31.9666Z" fill="#FCFC30"/>
</svg>
